<svg id="visual" viewBox="0 0 900 600" width="900" height="600" xmlns="http://www.w3.org/2000/svg" xmlns:xlink="http://www.w3.org/1999/xlink" version="1.1"><rect x="0" y="0" width="900" height="600" fill="#d4d8d9"></rect><defs><linearGradient id="grad1_0" x1="33.3%" y1="100%" x2="100%" y2="0%"><stop offset="20%" stop-color="#d4d8d9" stop-opacity="1"></stop><stop offset="80%" stop-color="#d4d8d9" stop-opacity="1"></stop></linearGradient></defs><defs><linearGradient id="grad2_0" x1="0%" y1="100%" x2="66.7%" y2="0%"><stop offset="20%" stop-color="#d4d8d9" stop-opacity="1"></stop><stop offset="80%" stop-color="#d4d8d9" stop-opacity="1"></stop></linearGradient></defs><g transform="translate(900, 600)"><path d="M-324.5 0C-319.3 -38.3 -314.1 -76.6 -284.4 -92.4C-254.6 -108.2 -200.4 -101.5 -188.5 -137C-176.6 -172.4 -207 -250.1 -190.7 -262.5C-174.5 -275 -111.6 -222.1 -72 -221.6C-32.4 -221.1 -16.2 -272.8 0 -324.5L0 0Z" fill="#5b8486"></path></g><g transform="translate(0, 0)"><path d="M324.5 0C272.6 17.1 220.7 34.3 219.7 71.4C218.6 108.5 268.4 165.6 262.5 190.7C256.6 215.9 195 209 158.7 218.4C122.4 227.8 111.2 253.5 89 273.9C66.8 294.3 33.4 309.4 0 324.5L0 0Z" fill="#5b8486"></path></g></svg>