<svg width="900" height="600" viewBox="0 0 900 600" fill="none" xmlns="http://www.w3.org/2000/svg">
<g clip-path="url(#clip0_1_2)">
<path d="M900 0H0V600H900V0Z" fill="#D4D8D9"/>
<path d="M74.6463 329.983C213.074 329.983 325.293 227.46 325.293 100.992C325.293 -25.477 213.074 -128 74.6463 -128C-63.7818 -128 -176 -25.477 -176 100.992C-176 227.46 -63.7818 329.983 74.6463 329.983Z" fill="#5B8486"/>
<path d="M597.488 617C632.565 617 661 591.021 661 558.975C661 526.929 632.565 500.95 597.488 500.95C562.411 500.95 533.976 526.929 533.976 558.975C533.976 591.021 562.411 617 597.488 617Z" fill="#5B8486"/>
<rect x="450" y="411" width="361" height="200" fill="#D9D9D9"/>
</g>
<defs>
<clipPath id="clip0_1_2">
<rect width="900" height="600" fill="white"/>
</clipPath>
</defs>
</svg>
